<mxfile host="app.diagrams.net" modified="2023-03-28T16:07:50.590Z" agent="Mozilla/5.0 (X11; Ubuntu; Linux x86_64; rv:109.0) Gecko/20100101 Firefox/111.0" etag="PuEBwuWO88_EQZ4Taxy-" version="21.1.1" type="github">
  <diagram name="Page-1" id="e3a06f82-3646-2815-327d-82caf3d4e204">
    <mxGraphModel dx="1226" dy="678" grid="1" gridSize="10" guides="1" tooltips="1" connect="1" arrows="1" fold="1" page="1" pageScale="1.5" pageWidth="1169" pageHeight="826" background="none" math="0" shadow="0">
      <root>
        <mxCell id="0" style=";html=1;" />
        <mxCell id="1" style=";html=1;" parent="0" />
        <mxCell id="sc8MJLwOmtzSrlmjD8fI-22" value="" style="rounded=1;whiteSpace=wrap;html=1;strokeWidth=0.5;dashed=1;" parent="1" vertex="1">
          <mxGeometry x="400" y="11" width="520" height="500" as="geometry" />
        </mxCell>
        <mxCell id="sc8MJLwOmtzSrlmjD8fI-13" value="" style="rounded=0;whiteSpace=wrap;html=1;strokeWidth=0.5;fillColor=#f9f7ed;strokeColor=#36393d;" parent="1" vertex="1">
          <mxGeometry x="440" y="41" width="439" height="229" as="geometry" />
        </mxCell>
        <mxCell id="sc8MJLwOmtzSrlmjD8fI-16" value="" style="whiteSpace=wrap;html=1;fillColor=#dae8fc;fontSize=14;strokeColor=default;verticalAlign=top;strokeWidth=0.5;rounded=1;dashed=1;" parent="1" vertex="1">
          <mxGeometry x="480" y="71" width="360" height="155" as="geometry" />
        </mxCell>
        <mxCell id="sc8MJLwOmtzSrlmjD8fI-20" value="qemu-system-x86_64" style="text;html=1;strokeColor=none;fillColor=none;align=center;verticalAlign=middle;whiteSpace=wrap;rounded=0;" parent="1" vertex="1">
          <mxGeometry x="594.5" y="41" width="131" height="20" as="geometry" />
        </mxCell>
        <mxCell id="sc8MJLwOmtzSrlmjD8fI-23" value="&lt;font style=&quot;font-size: 12px;&quot;&gt;host&lt;/font&gt;" style="text;html=1;strokeColor=none;fillColor=none;align=center;verticalAlign=middle;whiteSpace=wrap;rounded=0;" parent="1" vertex="1">
          <mxGeometry x="629.5" y="11" width="60" height="30" as="geometry" />
        </mxCell>
        <mxCell id="sc8MJLwOmtzSrlmjD8fI-26" value="" style="shadow=0;dashed=0;html=1;labelPosition=center;verticalLabelPosition=bottom;verticalAlign=top;align=center;outlineConnect=0;shape=mxgraph.veeam.3d.network_card;" parent="1" vertex="1">
          <mxGeometry x="641" y="500" width="38" height="40" as="geometry" />
        </mxCell>
        <mxCell id="sc8MJLwOmtzSrlmjD8fI-32" value="" style="endArrow=none;html=1;rounded=0;strokeWidth=0.8;fillColor=#f8cecc;gradientColor=#ea6b66;strokeColor=#b85450;entryX=0.5;entryY=1;entryDx=0;entryDy=0;" parent="1" source="sc8MJLwOmtzSrlmjD8fI-22" target="YEwRE7XMwQ6nSpZqg_oW-2" edge="1">
          <mxGeometry width="50" height="50" relative="1" as="geometry">
            <mxPoint x="150" y="570" as="sourcePoint" />
            <mxPoint x="60" y="520" as="targetPoint" />
            <Array as="points" />
          </mxGeometry>
        </mxCell>
        <mxCell id="sc8MJLwOmtzSrlmjD8fI-37" value="" style="endArrow=none;html=1;rounded=0;fillColor=#f8cecc;gradientColor=#ea6b66;strokeColor=#b85450;strokeWidth=0.8;" parent="1" source="sc8MJLwOmtzSrlmjD8fI-36" target="sc8MJLwOmtzSrlmjD8fI-26" edge="1">
          <mxGeometry width="50" height="50" relative="1" as="geometry">
            <mxPoint x="659.5" y="731.5576799465612" as="sourcePoint" />
            <mxPoint x="659.5" y="716" as="targetPoint" />
          </mxGeometry>
        </mxCell>
        <mxCell id="hZHQL17mHd2V5WKPXcm2-6" value="&lt;font style=&quot;font-size: 12px;&quot;&gt;&amp;nbsp;&amp;nbsp;&amp;nbsp;&amp;nbsp;&amp;nbsp;&amp;nbsp;&amp;nbsp;&amp;nbsp;&amp;nbsp;&amp;nbsp;&amp;nbsp;&amp;nbsp;&amp;nbsp;&amp;nbsp;&amp;nbsp;&amp;nbsp;&amp;nbsp;&amp;nbsp;&amp;nbsp;&amp;nbsp;&amp;nbsp;&amp;nbsp;&amp;nbsp;&amp;nbsp;&amp;nbsp;&amp;nbsp;&amp;nbsp;&amp;nbsp;&amp;nbsp;&amp;nbsp;&amp;nbsp;&amp;nbsp;&amp;nbsp;&amp;nbsp; virtio-net driver&lt;/font&gt;" style="whiteSpace=wrap;html=1;fillColor=#ffe6cc;fontSize=14;strokeColor=#d79b00;verticalAlign=top;strokeWidth=0.5;shadow=0;glass=0;dashed=1;" parent="1" vertex="1">
          <mxGeometry x="560" y="131" width="200" height="80" as="geometry" />
        </mxCell>
        <mxCell id="hZHQL17mHd2V5WKPXcm2-1" value="" style="image;aspect=fixed;html=1;points=[];align=center;fontSize=12;image=img/lib/azure2/general/Storage_Queue.svg;" parent="1" vertex="1">
          <mxGeometry x="591.27" y="161" width="49.23" height="40" as="geometry" />
        </mxCell>
        <mxCell id="hZHQL17mHd2V5WKPXcm2-7" value="" style="endArrow=none;html=1;strokeWidth=0.8;rounded=0;entryX=1;entryY=0.25;entryDx=0;entryDy=0;exitX=0;exitY=0.25;exitDx=0;exitDy=0;dashed=1;" parent="1" edge="1">
          <mxGeometry width="50" height="50" relative="1" as="geometry">
            <mxPoint x="480" y="117.75" as="sourcePoint" />
            <mxPoint x="840" y="117.75" as="targetPoint" />
          </mxGeometry>
        </mxCell>
        <mxCell id="hZHQL17mHd2V5WKPXcm2-8" value="&lt;font style=&quot;font-size: 12px;&quot;&gt;&amp;nbsp;&amp;nbsp;&amp;nbsp;&amp;nbsp;&amp;nbsp;&amp;nbsp;&amp;nbsp;&amp;nbsp;&amp;nbsp;&amp;nbsp;&amp;nbsp;&amp;nbsp;&amp;nbsp;&amp;nbsp;&amp;nbsp;&amp;nbsp;&amp;nbsp;&amp;nbsp;&amp;nbsp;&amp;nbsp;&amp;nbsp;&amp;nbsp;&amp;nbsp;&amp;nbsp;&amp;nbsp;&amp;nbsp;&amp;nbsp;&amp;nbsp;&amp;nbsp;&amp;nbsp;&amp;nbsp;&amp;nbsp;&amp;nbsp; virtio-net device&lt;/font&gt;" style="whiteSpace=wrap;html=1;fillColor=#ffe6cc;fontSize=14;strokeColor=#d79b00;verticalAlign=top;strokeWidth=0.5;shadow=0;dashed=1;" parent="1" vertex="1">
          <mxGeometry x="560" y="233" width="200" height="29" as="geometry" />
        </mxCell>
        <mxCell id="hZHQL17mHd2V5WKPXcm2-18" value="" style="endArrow=none;html=1;strokeWidth=0.8;rounded=0;entryX=1;entryY=0.75;entryDx=0;entryDy=0;exitX=0;exitY=0.75;exitDx=0;exitDy=0;dashed=1;" parent="1" edge="1">
          <mxGeometry width="50" height="50" relative="1" as="geometry">
            <mxPoint x="400" y="434" as="sourcePoint" />
            <mxPoint x="920" y="434" as="targetPoint" />
          </mxGeometry>
        </mxCell>
        <mxCell id="hZHQL17mHd2V5WKPXcm2-19" value="&lt;i&gt;host kernel space&lt;/i&gt;" style="text;html=1;strokeColor=none;fillColor=none;align=center;verticalAlign=middle;whiteSpace=wrap;rounded=0;" parent="1" vertex="1">
          <mxGeometry x="800" y="440" width="131" height="20" as="geometry" />
        </mxCell>
        <mxCell id="hZHQL17mHd2V5WKPXcm2-20" value="&lt;i&gt;host user space&lt;/i&gt;" style="text;strokeColor=none;fillColor=none;align=center;verticalAlign=middle;rounded=0;whiteSpace=wrap;html=1;horizontal=1;" parent="1" vertex="1">
          <mxGeometry x="890" y="161" width="20" height="100" as="geometry" />
        </mxCell>
        <mxCell id="hZHQL17mHd2V5WKPXcm2-21" value="&lt;i&gt;&lt;font style=&quot;font-size: 12px;&quot;&gt;guest user space&lt;/font&gt;&lt;/i&gt;" style="text;html=1;strokeColor=none;fillColor=none;align=center;verticalAlign=middle;whiteSpace=wrap;rounded=0;" parent="1" vertex="1">
          <mxGeometry x="480" y="91" width="100" height="20" as="geometry" />
        </mxCell>
        <mxCell id="hZHQL17mHd2V5WKPXcm2-22" value="&lt;i&gt;&lt;font style=&quot;font-size: 12px;&quot;&gt;guest kernel space&lt;/font&gt;&lt;/i&gt;" style="text;strokeColor=none;fillColor=none;align=center;verticalAlign=middle;rounded=0;whiteSpace=wrap;html=1;horizontal=1;" parent="1" vertex="1">
          <mxGeometry x="480" y="121" width="70" height="100" as="geometry" />
        </mxCell>
        <mxCell id="hZHQL17mHd2V5WKPXcm2-24" value="vring" style="text;html=1;strokeColor=none;fillColor=none;align=center;verticalAlign=middle;whiteSpace=wrap;rounded=0;" parent="1" vertex="1">
          <mxGeometry x="584.25" y="171" width="60" height="20" as="geometry" />
        </mxCell>
        <mxCell id="sc8MJLwOmtzSrlmjD8fI-36" value="" style="sketch=0;outlineConnect=0;gradientColor=#7ea6e0;fillColor=#dae8fc;strokeColor=#6c8ebf;dashed=0;verticalLabelPosition=bottom;verticalAlign=top;align=center;html=1;fontSize=12;fontStyle=0;aspect=fixed;pointerEvents=1;shape=mxgraph.aws4.internet_alt2;" parent="1" vertex="1">
          <mxGeometry x="621" y="550" width="78" height="78" as="geometry" />
        </mxCell>
        <mxCell id="YEwRE7XMwQ6nSpZqg_oW-1" value="" style="rounded=0;whiteSpace=wrap;html=1;strokeWidth=0.5;fillColor=#f8cecc;strokeColor=#b85450;" vertex="1" parent="1">
          <mxGeometry x="440" y="281" width="439" height="138" as="geometry" />
        </mxCell>
        <mxCell id="YEwRE7XMwQ6nSpZqg_oW-2" value="" style="rounded=1;whiteSpace=wrap;html=1;fillColor=#d0cee2;dashed=1;strokeWidth=0.5;strokeColor=#56517e;" vertex="1" parent="1">
          <mxGeometry x="480" y="301" width="360" height="100" as="geometry" />
        </mxCell>
        <mxCell id="YEwRE7XMwQ6nSpZqg_oW-3" value="&lt;div style=&quot;font-size: 12px;&quot;&gt;&lt;font style=&quot;font-size: 12px;&quot;&gt;&amp;nbsp;&amp;nbsp;&amp;nbsp;&amp;nbsp;&amp;nbsp;&amp;nbsp;&amp;nbsp;&amp;nbsp;&amp;nbsp;&amp;nbsp;&amp;nbsp;&amp;nbsp;&amp;nbsp;&amp;nbsp;&amp;nbsp;&amp;nbsp;&amp;nbsp;&amp;nbsp;&amp;nbsp;&amp;nbsp;&amp;nbsp;&amp;nbsp;&amp;nbsp;&amp;nbsp;&amp;nbsp;&amp;nbsp;&amp;nbsp;&amp;nbsp;&amp;nbsp;&amp;nbsp;&amp;nbsp;&amp;nbsp;&amp;nbsp;&amp;nbsp; vhost-user&lt;/font&gt;&lt;/div&gt;" style="whiteSpace=wrap;html=1;fillColor=#ffe6cc;fontSize=14;strokeColor=#d79b00;verticalAlign=top;strokeWidth=0.5;shadow=0;dashed=1;" vertex="1" parent="1">
          <mxGeometry x="559.5" y="310" width="200" height="80" as="geometry" />
        </mxCell>
        <mxCell id="hZHQL17mHd2V5WKPXcm2-9" value="" style="image;aspect=fixed;html=1;points=[];align=center;fontSize=12;image=img/lib/azure2/general/Storage_Queue.svg;" parent="1" vertex="1">
          <mxGeometry x="589.63" y="320" width="49.23" height="40" as="geometry" />
        </mxCell>
        <mxCell id="hZHQL17mHd2V5WKPXcm2-16" value="" style="rounded=1;whiteSpace=wrap;html=1;fillColor=none;dashed=1;strokeWidth=0.5;" parent="1" vertex="1">
          <mxGeometry x="578.5" y="150" width="71.5" height="220" as="geometry" />
        </mxCell>
        <mxCell id="hZHQL17mHd2V5WKPXcm2-25" value="vring" style="text;html=1;strokeColor=none;fillColor=none;align=center;verticalAlign=middle;whiteSpace=wrap;rounded=0;" parent="1" vertex="1">
          <mxGeometry x="585.89" y="330" width="60" height="20" as="geometry" />
        </mxCell>
        <mxCell id="YEwRE7XMwQ6nSpZqg_oW-5" value="OVS" style="text;html=1;strokeColor=none;fillColor=none;align=center;verticalAlign=middle;whiteSpace=wrap;rounded=0;" vertex="1" parent="1">
          <mxGeometry x="847" y="290" width="30" height="10" as="geometry" />
        </mxCell>
        <mxCell id="YEwRE7XMwQ6nSpZqg_oW-6" value="DPDK" style="text;html=1;strokeColor=none;fillColor=none;align=center;verticalAlign=middle;whiteSpace=wrap;rounded=0;" vertex="1" parent="1">
          <mxGeometry x="790" y="305" width="40" height="15" as="geometry" />
        </mxCell>
      </root>
    </mxGraphModel>
  </diagram>
</mxfile>
